<svg xmlns="http://www.w3.org/2000/svg" viewBox="0 0 805 444"><defs><style>.cls-1{fill:none}.cls-2{fill:#bdc6ce}.cls-3{fill:#677174}.cls-4{fill:#272b2e}.cls-5{fill:#272a2d}.cls-6{fill:#ffcb1f}.cls-12{fill:#8e9fa6}.cls-13{fill:#343433}.cls-14{opacity:.2}.cls-16{fill:#d3a029}.cls-18{opacity:.1}.cls-21{fill:#1d1c1a}.cls-26{fill:#8b969c}.cls-28{fill:#393d47}.cls-29{fill:#e7e8e8}.cls-31{fill:#131718}.cls-32{fill:#a5aeb8}.cls-33{fill:#fff}.cls-36{fill:#b4babe}.cls-38{fill:#13171b}</style><radialGradient id="radial-gradient" cx="248.7" cy="382.4" r="293.47" gradientTransform="matrix(1.1 0 0 .94 129.85 -127.13)" gradientUnits="userSpaceOnUse"><stop offset="0" stop-color="#fff"/><stop offset=".21" stop-color="#c7dbeb" stop-opacity=".78"/><stop offset=".68" stop-color="#3b81b9" stop-opacity=".23"/><stop offset=".87" stop-color="#005ba4" stop-opacity="0"/></radialGradient><linearGradient id="linear-gradient" x1="511.96" y1="194.07" x2="745" y2="194.07" gradientUnits="userSpaceOnUse"><stop offset="0" stop-color="#226ead"/><stop offset="1" stop-color="#004b86"/></linearGradient><linearGradient id="linear-gradient-2" x1="490" y1="202.5" x2="744.33" y2="202.5" gradientUnits="userSpaceOnUse"><stop offset="0" stop-color="#1374b2"/><stop offset="1" stop-color="#00568c"/></linearGradient><clipPath id="clip-path"><path id="SVGID" class="cls-1" d="M350.49 154.57l-18.82-52.48s-15.9-55.8-71.17-56C185.17 45.71 167 0 167 0s7.38 41.26 91 54.3c85.37 13.31 30 114.43 30 114.43l71.77 9.54"/></clipPath><clipPath id="clip-path-2"><path id="SVGID-2" data-name="SVGID" class="cls-2" d="M534.87 394.66c2.11 2.58 18.62 10.77 18.62 10.77l22.94-6.69s30.29-36.42 32.69-46.11-2.18-27.29-2.18-27.29l-13.12-8-8.14-22.59s-16.67-4.79-19.91-5.59c-4-5.81-12.67-23.71-14.94-25.64s-27.49-2.67-32.83-3.3S468.94 292 463.14 296s-10.63 15.21-10.27 27.65c.2 6.92-.13 11.69-.44 18.41-.25 5.36.17 13.85 3.12 17.92 0 0 21.91 28 32.92 36.25 10.32-11.17 15.38-23.3 12.44-32.26 4.36-1 5.73-2.36 5.73-2.36l-.14 10.92 25.28 17.92 3.23-1.94z"/></clipPath><clipPath id="clip-path-3"><path id="SVGID-3" data-name="SVGID" class="cls-3" d="M398.41 274.57l11.78-6-10.27 27.63-64.72 20.55-5.36.19-46.94-43.42.16 25.43 48.55 23.61s51.95-12.89 56-13.78a87.59 87.59 0 0 0 10-3.18 61.17 61.17 0 0 0 19.49-26.4c3.91-10.6 1.54-28.43 1.54-28.43z"/></clipPath><clipPath id="clip-path-4"><path id="SVGID-4" data-name="SVGID" class="cls-1" d="M319.62 217.34c-13-.63-11.1 9.61-10.77 11.12.39 1.76 2.26 3.52-1.31 6.22-38 17.89-17.09 38-13 40.12a25.2 25.2 0 0 0 5.75 1.77 50.8 50.8 0 0 1 15.59 6c13.64 8.1 11.07 6.14 20.07 14.41s30.05 2.57 38.17-2.77c9.51-6.26 5.62-20.07 3.17-26.42s-.92-3.49 2.33-4.41c5-1.43 9.55-7.06 4-14.57-6.86-9.23-16.7-4.4-16.7-4.4-13.4-11.93-34.6-16.4-34.6-16.4a12 12 0 0 0-9.28-10.15 18.17 18.17 0 0 0-3.44-.48"/></clipPath><clipPath id="clip-path-5"><path id="SVGID-5" data-name="SVGID" class="cls-4" d="M437.91 175.68a190.4 190.4 0 0 1 28.66 14.26c4.05 2.54 9.26 6.8 13.07 9.61 4.7 3.48 9.29 7 14.2 9.54 2.27 1.15 10.13 4 9.17 6.88s-7.85 6.19-11.15 7.13c-6.59 1.88-12.94 4-25.76 2.06a365.7 365.7 0 0 1-66.32-16.57c-21.34-7.43-38.15-14.36-58.79-23.22-9.71-4.18-18.35-10.87-26.66-17.09-6.73-5-13.07-11.18-17-20-1.47-3.28-3.6-7.29-1.07-10 3.21-3.37 9.06-3.21 13.67-2.11 5.25 1.12 10.46 2.42 15.6 3.95 5.4 1.85 11.3 2.61 16.86 4 15.65 3.94 30.88 9.93 46.11 15.08 19.67 6.7 29.71 9.8 49.41 16.48z"/></clipPath><clipPath id="clip-path-6"><path id="SVGID-6" data-name="SVGID" class="cls-5" d="M451.8 196.86c2.75-5.53 2.3-10.86 3.33-16.79 1.32-7.56 1.07-16.82 1.47-24.32a195.89 195.89 0 0 0 .93-23.31c-.21-2.75-.18-8.27-.22-10.86a19.2 19.2 0 0 0-1.36-7c-1.26-4.65-7.39-3-11.48-4.08a121.11 121.11 0 0 1-15.47-4.29c-4.35-1.55-8.29-4.09-12.77-6.45-4.87-2.49-10-5.45-15.13-8.42-1.84-1-3.41-2.74-5.54-2s-7.51 4.81-9 6.18c-4.05 3.72-8.84 7.87-12.55 11.47-9 8.69-12.84 12.73-20 22.28-4.07 5.43-7.61 10.67-11.82 16.44-2 2.72-5.85 8.63-3.66 12.09.64 1.75 7.81 9.64 20.56 17.23 8.89 5.28 19.89 10.11 36.12 15.86a190.84 190.84 0 0 0 34.51 8.8c9.74 1.55 16.56 1.68 19.93-.95z"/></clipPath><clipPath id="clip-path-7"><path id="SVGID-7" data-name="SVGID" class="cls-6" d="M342.19 145.74c3.26-4.47 6.13-8.63 9.15-12.82 1.73 6.24 22.23 17.84 48.89 27.29 26.36 9.35 49.74 13.43 55.88 10.07a80.5 80.5 0 0 1-1 9.79c-1 5.93-.58 11.26-3.33 16.79l-2.15 1.91c-3.37 2.63-10.17 2.42-19.93.95a179.32 179.32 0 0 1-34.51-8.8c-16.19-5.75-27.19-10.58-36.1-15.86-12.75-7.59-19.92-15.48-20.56-17.23-2.19-3.46 1.62-9.37 3.66-12.09z"/></clipPath></defs><g id="Superman"><ellipse id="space" cx="402.5" cy="231.5" rx="402.5" ry="181.5" opacity=".4" fill="url(#radial-gradient)"/><g id="tail"><path d="M531.07 285.14S707.67 272.07 745 103c0 0-44.3 153.9-233 97.87z" fill="url(#linear-gradient)"/><path d="M507.6 304c218.11-12.88 236.73-203 236.73-203S725 276.47 490 266z" opacity=".28" fill="url(#linear-gradient-2)"/></g><g id="shadows" opacity=".13"><path d="M608 351.47c-3-1.81-17.27 33.53-24 50.53l-131-57.33s4.32 30.84 14.69 48.17c8.62 14.4 30.64 25.46 30.64 25.46 5.34 5.85 21.86 16.52 33.91 22s21.86 3.79 40.8 1.55 29.83-37.48 29.83-37.48 9.62-17.64 12.42-22.31-3.46-28.22-7.29-30.59zm-415-60.94l6.39 16 12.92-3 1.47 3 10.79-1.15 8.79-18.19s8.39-8.88 7.86-15.27l2.79-.8s6.26-8.25 11.06-10 18-9.72 21.31-15.18.72-12 .72-12l-74.78 41.65z"/><path d="M292.76 319.71s3.66 11.85 31.46 24.89 40.61 21 58.58 24.5 38.38 7.85 51.62.79 48.3-36.61 48.3-36.61l-21.34-35.42z"/></g><g id="jack"><g id="fist"><path d="M218 240.49l.55 6.64L186 269.6s8.15 27.47 8.6 28.5l-.4-.09 1 2.1 13.8-2.63.59 2 11.22-.55 1.31-2 6.81-16.88 6.47-8.05 2.81-12.2z" fill="#aeb7c2"/><path class="cls-12" d="M186 269.6l32.59-22.47-.55-6.64-.15-.14S208.46 246.62 201 251s-21.36 16.52-21.36 16.52L194.15 298l.4.09c-.45-1.02-8.55-28.49-8.55-28.49z"/><path class="cls-12" d="M209.55 299.49l5.18-18.83-1.59-6.48-5.32-.23s-3.48 6.17-4.47 6.35-4-8.09-4.16-7.4 2.47 6.87 2 7.73c-1.33.12-7.8-3.05-7.8-3.05s5.58 3.49 7.06 5.89c0 2.51-4.74 11.89-4.74 11.89s4.29-8 5.25-8.7c.72.6 4 6.3 4 6.3s-2.34-4.59-2.48-6.16a5.52 5.52 0 0 1 2.09-5.1s4.05-3.33 7.56-1.63a67 67 0 0 1-3.1 17.27c-.73 2.02-.58 3.06.52 2.15z"/></g><path id="hand-right" class="cls-13" d="M287 220.17c-22.71 37-34.33 26.2-46.94 44-2.15 3-6.48-2.51-7.28-6.16a1.48 1.48 0 0 0-.13-.35 21.14 21.14 0 0 0-10.88-9.2c-4-1.54-6.77-8.39-3.58-11.23 15.32-13.65 17.95-32.42 27.86-45.37.64-.84 6.16 0 7.18.3a6.21 6.21 0 0 1 2.56 1.72 80.06 80.06 0 0 1 11 13.2 6.66 6.66 0 0 1 1.23 2.66c.18.84 19.47 9.69 18.98 10.43z"/><g id="coat"><path class="cls-14" d="M167 0s4.65 28.14 41 45.67 75.31 24.58 71.5 83.87c-2.51 39 46.91-6.19 46.91-6.19l-24.56-62.21-41.15-6.37-39.77-13.06-25.2-9.71zm371.55 214.59l132.43 95 106-.91S718.75 373 590.8 331.17"/><path d="M768.39 304.1s-19.8 4.24-27.23 3.58-37.46-9.27-47.07-9.07l-12.93 1.56-26.52-25.59A621.27 621.27 0 0 0 599 244.77c-11.23-16.11-49-66.87-95.05-91.31l-75.66-27.53-17.93 4.44-8.1 42 92 26.7 77.57 36.43c-8.21 4.71 28.52 44.77 28.52 44.77l50.37 44.25 43.65 10 43.19-4 23.85-11.91 15.59-9.94zM257.92 46.05c44.53-.48 78.68 21.82 78.68 21.82l63.16 41.91-53.34 57.4-40.74-98.11L254 50.22 216.75 41l-19.23-7.71-19.71-14.49L171 8.52 167 0l27.4 19.16s4.31 7.53 12.23 10.12l12.87 1.6a104.27 104.27 0 0 1 23 11.54l7.61 5.4" fill="#ffcc02"/><path class="cls-16" d="M350.49 154.57l-14.21-46.8s-11-62.38-75.78-61.72C185.18 46.8 167 0 167 0s7.38 41.26 91 54.3c85.37 13.31 30 114.43 30 114.43l71.77 9.54"/><path d="M678.76 297.93c-31.13-7.59-40-4.3-40-4.3 5.59 8.63 12.48 11.07 12.48 11.07l30-4.53zm67.8 9.66s-19.56 3.92-24.2 3.84l11.95-5s7.05 1.73 12.25 1.16zM202 27.05a17.81 17.81 0 0 0 4.59 2.23L197 27.6s-5.83-2.54-9.09-5.41A75.39 75.39 0 0 0 202 27.05z" fill="#ebb51e"/><path class="cls-16" d="M615.82 281.61C563.36 190.71 505 184.09 505 184.09s-27.28 3.61-42.06 5.41c-17-10.37-40.56-16-66.15-14.35a133 133 0 0 0-25.22 4.07q17.24 18.71 33 38.64c16.09 20.34 3.21 74.05.21 94.78 35.66-5.6 50.39-29.13 61.73-64.8l1.45-.64c4 .08 14.89 5.47 16.85 3.81a45.08 45.08 0 0 0 4.53-13.14l34.16-14.93c66.94 38.67 42.1 52.89 115.82 97.24S777 308.67 777 308.67c-23.6 15.33-114.71 53.44-161.18-27.06z"/><path class="cls-18" d="M581.52 272.91c58.73 68.25 115.15 64.36 115.15 64.36s-67.75-4.09-115.41-80c0 0-27.86-48.37-72.6-52.82l-32.6.22M426 235.76s30 5.52 28.35 25.11-17.82 41.94-30.23 46.13-1.83 19.47-1.83 19.47 54.25-65.58 54.6-67 12.43-35.68 12.43-35.68l-54.68-13.3z"/><path d="M445.24 234.63s16.88 38.86-24.24 70.47c0 0-28.12 23.94-71.59-4.6l4-19.38s30.37-29.32 33.51-31.05 58.32-15.44 58.32-15.44z" fill="#fdc031"/><g clip-path="url(#clip-path)"><path class="cls-18" d="M322.89 131.77s-4.26-67.91-45.36-77.58-28.26 1.05-65.67-12.4 74 96.57 74 96.57z"/></g></g><g id="body"><path class="cls-21" d="M400.39 221.74c-15.76-3.9-33.42-7.66-50.54-10.25 1.2-.92 2.44-1.81 3.68-2.67a3.23 3.23 0 0 1 1.33-.62c-6.86-28.51 13.41-78.06-80.81-90.2-14.43 13.81-39.4 32.94-41 66 6.25 9.69 21.26 35.45 30.77 42a28.05 28.05 0 0 0 5.19 2.77c.12.63.23 1.29.34 1.94a25.79 25.79 0 0 0 .36 3c.24 1.34.45 2.72.65 4.12.74 6.42 1.24 13.64 1.92 21.31 1.92 26.81 4.73 56 34.47 71.36 43.76 22.66 40.8 23.41 75.81 32.22C439.08 377 443.15 347.55 486 315.58c31.22-23.35-29-79.87-85.61-93.84z"/><path class="cls-21" d="M355.51 208.28a1.12 1.12 0 0 0-.65-.08c.12.48.24 1 .38 1.44.67.27.93-1.07.27-1.36z"/><path class="cls-13" d="M481.43 298.16c2-2.09-1.26-25.29-.83-28.11 14.83 17.28 19.64 34.87 5.36 45.53-42.81 32-46.88 61.4-103.44 47.18-12.74-3.21-20.44-5.35-27.21-7.86 57.51 6.82 76.82-5.45 126.12-56.74zm-136.66-81.01c-.11-.45-.21-.92-.32-1.4a.86.86 0 0 1 .59.05c.59.27.32 1.61-.27 1.35zm-63.58-48.57c-9.25-29.54 62-73.18 63.26 47.17a2.9 2.9 0 0 0-1.21.64c-3.49 2.72-7.1 5.59-9.25 9.64-1.58 3-2.26 6.34-3.15 9.6-.32 1.16-.69 2.3-1.07 3.45l-9.39 13.63c-10.08 2.69-12.57 1.11-12.2.24 21.97-52.04-9.81-29.54-26.99-84.37z"/></g><g id="hand-right-2" data-name="hand-right"><path class="cls-21" d="M605.32 383.5a241.08 241.08 0 0 0-14.39 32.9c-1.12 3.2-5.54 1.29-9.22 1.82-1.71.25-4.17 2.55-5.84 2-12.14-3.86-20.82-4.94-33-8.8-6.11-1.94-12.37-4-17.38-7.77a24 24 0 0 1-9.72-17.77c20-11.61 39.07-25.5 50.79-44.25 5.25-8.38 10.48-18.7 21.15-20.15 6.26 5.24 12.57 10.52 17.54 16.78s8.55 13.64 8.58 21.16c.08 8.65-4.47 16.45-8.51 24.08z"/><path class="cls-13" d="M561.33 411.68c9.86 2.43 24.91-5.7 34.15-7.1-1.61 3.91-3.15 7.84-4.55 11.82-1.12 3.2-9.9 6.22-11.61 6.62-15.52 3.67-26.68 1.78-38.82-2.08-6.1-1.94-20-11-25.26-14.46-59.64-39.21-22.46-51.39-22.71-58.08 4-2.29 30.75 33.91 34.58 31.42 9.28 11.52 17.99 27.85 34.22 31.86z"/><path d="M466.44 307.9c14.66 37.53 51.93 58.06 83.22 45.85s31.74-38.69 31.86-80.84c-9.75-18.87-20.75-28.9-32.11-36.73-14.08-9.72-32.76-19.56-52.87-18.33-31.29 12.21-44.77 52.53-30.1 90.05z" fill="#515352"/><path class="cls-21" d="M493.49 218.68c-6.1 9.17-11 22.79-14.89 30.07 2.46 10.89 4.1 16.34 13.28 28.78 23.93 32.44 48.37 68.85 79.66 56.65 1.2-.47 2.36-1 3.5-1.54A53 53 0 0 1 550.11 353c-31.29 12.21-68.56-8.32-83.22-45.85-14.11-36.05-2.17-74.71 26.6-88.47z"/><path class="cls-14" d="M581.72 272.85l-.34 11.52s-29.9-41.25-63.9-50.77-51.2 17-50.93 14.24c.76-7.74 13.93-20.39 13.93-20.39a42.76 42.76 0 0 0 20.62-8.2l1.21-1.55c55.3 6.41 78.66 54.15 78.66 54.15z"/></g><g id="fist-right"><path id="SVGID-8" data-name="SVGID" class="cls-2" d="M534.87 394.66c2.11 2.58 18.62 10.77 18.62 10.77l22.94-6.69s30.29-36.42 32.69-46.11-2.18-27.29-2.18-27.29l-13.12-8-8.14-22.59s-16.67-4.79-19.91-5.59c-4-5.81-12.67-23.71-14.94-25.64s-27.49-2.67-32.83-3.3S468.94 292 463.14 296s-10.63 15.21-10.27 27.65c.2 6.92-.13 11.69-.44 18.41-.25 5.36.17 13.85 3.12 17.92 0 0 21.91 28 32.92 36.25 10.32-11.17 15.38-23.3 12.44-32.26 4.36-1 5.73-2.36 5.73-2.36l-.14 10.92 25.28 17.92 3.23-1.94z"/><g clip-path="url(#clip-path-2)"><path class="cls-12" d="M578.69 397.93a.87.87 0 0 0 .85.1c-7.92-3.36-16.47-8.73-22-15.44-3.24-3.94-5.81-7.38-2.66-11.76a131.81 131.81 0 0 0 8-13.36c2.24-4 10.94-13.62 12.4-18-2.76 1-9.89 10-11.52 12.21-2 2.76-4 6-6.23 8.59-4 4.73-6.65 10.24-10.34 15.23-2.66 3.6-4.27 7.82-7.8 10.52-2.85 2.19-10.94 2.29-11 6.1 1.48.79 6.34 7.22 7.74 8.17 2.11 1.43 4 1.72 6.29 2.62a22.65 22.65 0 0 1 7 4.94 13.26 13.26 0 0 0 8.08 3.85c8.28 1.26 16.35-1.67 23.87-5.89m-108.25-98.7c5.17-3.69 9.26-7 14.95-11.27 4.37-3.27 12.47-9 16.31-12.86 1.68-1.69 7.9-9.49 10.84-7.6-7.87 9.13-15 19.06-21.87 28.92a177.41 177.41 0 0 0-9.44 15.11c-1.89 3.34-8.38 9.41-7 13.35 2.46 6.77 10.36 12.13 15.76 16.44 2.7 2.15 2.93 2 5.67 4.13 3.86 3 13.84-7.29 17.85-9-1.72.69-1.15 6.41-4.58 10.6s-6 9.37-8.74 13.95c-1.67 2.82-1.61 7.72-2 10.92s-2.23 8.82-1.53 11.93c-10.52 9.24-22 13.22-26.9 6.74-6.2-8.22-17.44-27.62-24.7-33.36-4.38-3.45 12.29-28.38 13-34.43.69-5.84-.53-9.51 2.28-14.82 1.48-2.72 3.51-4.06 10.1-8.75z"/><path class="cls-12" d="M506.77 361c3-5.36 1.92-10.43 5.78-15.14 7.84-9.55 12.08-14.53 18.77-22.73 2.48-3.05 4.24-6.07 8.43-10.35 2.74-2.79 3.62-1 1.74 1.37-2.85 3.55-5.68 6.56-8.43 10.78-3.53 5.42-7.51 10.19-10.4 14.4-3.57 5.2-9.24 13.09-8.11 22.94l8.54 10.65c1.7 1.45 12.48 8.43 12.73 8.56a96.33 96.33 0 0 0 13-3.9c-6.35 12.39-19.76 16.59-25.76 13.49-3.51-1.82-5.68-5.74-7.86-8.87a102.39 102.39 0 0 0-8.12-10.09c-.58-.65-1.15-1.28-1.66-1.93.92-.63 1.9-1.36 2.89-2.11-2.21-1.62-3.4-3.75-1.54-7.07z"/><path fill="#d9e3e3" d="M484.47 395.77l8.21-14.43-6.46-11.37-12.82 14.33 11.07 11.47z"/><path d="M507.8 282.7L473 311.14l-7.46 17.7 4.14 10.29s18.1 12.18 31.9 25.1c-20.89-18.27-27.7-26.81-27.7-26.81-1.39-4.11.46-8.8 2-12.2 1.79-4 8.17-12.9 8.17-12.9z" fill="#627479"/></g></g><g id="head"><path class="cls-26" d="M297.73 239.34l37.5-42.9 112.56 2.15s-29.86 40.27-26.51 72.31-35.55 38.26-35.55 38.26l-54.36 12.33-45.62-21.12 1.38-17.18z"/><path id="SVGID-9" data-name="SVGID" class="cls-3" d="M398.41 274.57l11.78-6-10.27 27.63-64.72 20.55-5.36.19-46.94-43.42.16 25.43 48.55 23.61s51.95-12.89 56-13.78a87.59 87.59 0 0 0 10-3.18 61.17 61.17 0 0 0 19.49-26.4c3.91-10.6 1.54-28.43 1.54-28.43z"/><g clip-path="url(#clip-path-3)"><path class="cls-28" d="M279.63 285.72c1 19.85-20.18 41.91 44.12 67.58 15.58 6.22 28.47-29.41 52.64-35.87 21.56-5.75 23.37-23.33 23.37-23.33L291.61 275z"/></g><path class="cls-29" d="M366.94 244.37c-13.4-11.93-34.6-16.4-34.6-16.4m-24.8 6.71c3.57-2.7 1.7-4.46 1.31-6.22-.33-1.51-2.22-11.75 10.77-11.12 11.87.57 12.72 10.63 12.72 10.63"/><path fill="#adb3ba" d="M334.08 228.38l36.33-40.45 15.59 6.82-20.34 48.52"/><path class="cls-29" d="M366.94 244.37s9.84-4.83 16.7 4.4c5.59 7.51 1.07 13.14-4 14.57-3.25.92-2.33 4.41-2.33 4.41l-13.9-2.47z"/><path class="cls-3" d="M324.44 208.88s13.43 7.77 19 7.4c1.9-.12 7.34-2.64 7.34-2.64s16.35 6 18.62 6.82c2 2.46 3.2 6.84 3.2 6.84s9.56 9.67 26.83 13.93a31.32 31.32 0 0 0 17-.31c4.73-1.45 7.83-12.1 9.32-10.77l11.51-5.15-62-19.22L337 192.53z"/><path class="cls-31" d="M444.67 209.57L420.86 208a28.53 28.53 0 0 0-14.11-10.37 34.54 34.54 0 0 0-5.2-1.37 31.44 31.44 0 0 0-17.68 1.69L364 190.84a10.33 10.33 0 0 0-.21-5 23.59 23.59 0 0 0-10.9-12.55c-1.27-.67-7.74-5.09-9.08-5.49-9.55-2.85-17.75 4.16-20.41 13.84-2.91 10.63-2.89 16.09 1 22.06 2.42 3.7 13.78 9.24 15.84 9.54 3.77.18 9-2.26 13-4.5l20.58 8.86c.83 2 6.41 14.66 14.46 18.36 2.38 1.15 19 6.7 24.4 4.53s8.48-8 10.13-13.2l18.34-6.6z"/><path class="cls-31" d="M419.69 258.9c4.31-15.16 3.77-22.29 3.77-22.29s7.7-8.47 11.18-26.08v12"/><path class="cls-31" d="M404.66 292.68s17-30.44 22.39-33.19c5.79-3 18.39-2.38 27.3 1.38 0 0-9.73-15.13-13.38-18.79s13.71 6.27 15.69 8.31-10.87-17.57-17.9-20.95 12.38 5.61 16.3 7.77-16.83-18.45-20.71-20-5.38-1.32-5.38-1.32l-14.1 46z"/><path class="cls-32" d="M308.53 295.64s-16.67 4.07-24.14 13.81c0 0 1.38-14.15 1.1-22.26s23 8.45 23 8.45"/><path class="cls-32" d="M310.11 310.69s-12.62 7.17-20.09 14c0 0 0-10.67.23-30.73"/><path class="cls-32" d="M376.18 292.47s-18.68 24.17-43.84 24.8c-16.13.41-35-8.38-44.85-22.77-7.22-10.53-5.09-21.22-1-31.64 11.36-29 89.7 29.61 89.7 29.61"/><path class="cls-32" d="M326.1 314.26s-14.1 4.84-20.64 12.93c0 0-1.45-13.85-1.82-20.7s22.46 7.77 22.46 7.77"/><path class="cls-29" d="M288.23 263.48s-3.36 17.62 7.17 27.67 36.82 17.18 45.12 16.94c7.62-.21 31-6 34.94-16.28s-87.23-28.33-87.23-28.33"/><path class="cls-33" d="M289.91 258.49A32.14 32.14 0 0 0 293 284c7.64 13.19 38.12 20.64 45.5 21.35 7.73.74 29.53-3 35.22-11.55s-83.83-35.32-83.83-35.32"/><path class="cls-33" d="M295.7 277.53l-7.83 12.29s-1.7 2.08.13 3.55c2.62 2.09 13.16 7.1 13.16 7.1s1.57 1.13 3.29-.86c.41-.46.71-1 1.13-1.53.07-.09.37.23.37.23l-.9 1.75a2.3 2.3 0 0 0 .84 3.2c3 1.94 13.48 7.19 13.48 7.19s2 1.28 3.33-2 6.57-13.62 6.57-13.62"/><path d="M285.4 255.81s-.45 16.74 7.75 23 11.91 4.45 20.74 9.67c10.68 6.3 12.07 11.51 21.6 13.67s25.81 3.58 40.45-9.38-77.5-29-77.5-29z" fill="#bec1cc"/><path class="cls-29" d="M332.34 228s21.2 4.47 34.6 16.4a53.19 53.19 0 0 1 9 20.06s10.83 21.47-1.74 29.74c-8.12 5.34-29.16 11-38.17 2.77s-6.43-6.31-20.07-14.41c-10-6-17.28-5.62-21.34-7.74-4.3-2.26-28.68-26.52 18.23-42.41 0 0 14.81-4.31 19.51-4.41"/><path class="cls-33" d="M332.34 228s21.2 4.47 34.6 16.4c0 0-15-4.34-30.08 9.67-14.79 13.72-10.56-1.06-8.44-5 4.84-9 6.42-14.22 3.92-21"/><g clip-path="url(#clip-path-4)"><path class="cls-32" d="M385.59 258.28s.15 1.57-6.79 2.65c-7.31 1.14-1.41 8.37 1.38 18.5 1.61 5.84 8.95-23.72 8.95-23.72z"/></g><path class="cls-36" d="M383 34.14c-25 2.92-38.41 99.44-18.47 111.84l22.47-32.1-3.72-36.57z"/><path class="cls-26" d="M354.82 133.22C383.68 31.17 383 69.44 383 69.44c9.44 59.69 1 50.14 1.29 59.09.3 7.88-31.71 12.78-29.43 4.69"/><path class="cls-28" d="M437.6 176.46a183.28 183.28 0 0 1 28.61 14.38c4 2.57 9.22 6.89 13 9.74 4.68 3.53 9.25 7.16 14.15 9.67 2.26 1.15 10.12 4 9.14 7s-7.95 6.44-11.28 7.43c-6.63 2-13 4.19-25.87 2.35A356.12 356.12 0 0 1 399 210.6c-21.34-7.43-38.14-14.4-58.75-23.31-9.71-4.2-18.33-10.93-26.61-17.24-6.69-5.1-13-11.36-16.88-20.39-1.44-3.34-3.52-7.5-.94-10.26 3.24-3.49 9.12-3.39 13.73-2.29 5.26 1.1 10.47 2.38 15.61 3.91 5.41 1.85 11.32 2.57 16.89 3.95 15.67 3.91 30.89 9.91 46.12 15.06 19.68 6.66 29.72 9.77 49.43 16.43z"/><path id="SVGID-10" data-name="SVGID" class="cls-4" d="M437.91 175.68a190.4 190.4 0 0 1 28.66 14.26c4.05 2.54 9.26 6.8 13.07 9.61 4.7 3.48 9.29 7 14.2 9.54 2.27 1.15 10.13 4 9.17 6.88s-7.85 6.19-11.15 7.13c-6.59 1.88-12.94 4-25.76 2.06a365.7 365.7 0 0 1-66.32-16.57c-21.34-7.43-38.15-14.36-58.79-23.22-9.71-4.18-18.35-10.87-26.66-17.09-6.73-5-13.07-11.18-17-20-1.47-3.28-3.6-7.29-1.07-10 3.21-3.37 9.06-3.21 13.67-2.11 5.25 1.12 10.46 2.42 15.6 3.95 5.4 1.85 11.3 2.61 16.86 4 15.65 3.94 30.88 9.93 46.11 15.08 19.67 6.7 29.71 9.8 49.41 16.48z"/><g clip-path="url(#clip-path-5)"><path class="cls-38" d="M379 183.24c-6.66.51-18.66-5.52-22.87-7.67a123.54 123.54 0 0 1-27.83-19.42c-7.84-7.36-16.42-18.84-15.13-24.86.55-2.53 5.08-3.09 9.07-4.28 6.15-1.72 1.67 0 7 2.47 5 2.05 11 5.88 15.62 8.09s9.13 6.8 12.92 10"/></g><path id="SVGID-11" data-name="SVGID" class="cls-5" d="M451.8 196.86c2.75-5.53 2.3-10.86 3.33-16.79 1.32-7.56 1.07-16.82 1.47-24.32a195.89 195.89 0 0 0 .93-23.31c-.21-2.75-.18-8.27-.22-10.86a19.2 19.2 0 0 0-1.36-7c-1.26-4.65-7.39-3-11.48-4.08a121.11 121.11 0 0 1-15.47-4.29c-4.35-1.55-8.29-4.09-12.77-6.45-4.87-2.49-10-5.45-15.13-8.42-1.84-1-3.41-2.74-5.54-2s-7.51 4.81-9 6.18c-4.05 3.72-8.84 7.87-12.55 11.47-9 8.69-12.84 12.73-20 22.28-4.07 5.43-7.61 10.67-11.82 16.44-2 2.72-5.85 8.63-3.66 12.09.64 1.75 7.81 9.64 20.56 17.23 8.89 5.28 19.89 10.11 36.12 15.86a190.84 190.84 0 0 0 34.51 8.8c9.74 1.55 16.56 1.68 19.93-.95z"/><g clip-path="url(#clip-path-6)"><path class="cls-38" d="M392.06 91.22l6.53 14.93 2.47 7.63-22.54 37.88-31.39-16.17L374.38 101l17.68-9.78z"/></g><path class="cls-26" d="M479.61 94.72s-45.76 56.34-51.29 89.95c-5.76 35 15.28-2.16 15.28-2.16z"/><path class="cls-36" d="M452.59 173.41s39.49-28.41 46.76-90.84c1-8.41-.11-17.12-3.31-12.49 0 0-24.69 32-34.37 60.85-9.38 27.95-25.47 55.22-25.47 55.22z"/><path id="SVGID-12" data-name="SVGID" class="cls-6" d="M342.19 145.74c3.26-4.47 6.13-8.63 9.15-12.82 1.73 6.24 22.23 17.84 48.89 27.29 26.36 9.35 49.74 13.43 55.88 10.07a80.5 80.5 0 0 1-1 9.79c-1 5.93-.58 11.26-3.33 16.79l-2.15 1.91c-3.37 2.63-10.17 2.42-19.93.95a179.32 179.32 0 0 1-34.51-8.8c-16.19-5.75-27.19-10.58-36.1-15.86-12.75-7.59-19.92-15.48-20.56-17.23-2.19-3.46 1.62-9.37 3.66-12.09z"/><g clip-path="url(#clip-path-7)"><path class="cls-16" d="M461 203.62c-7.1-1.3-19.79 3.23-27.21.5-2.79-7.91-2.72-41.75-2.79-38.44 3.47-1.34 12.23 4.87 17.35 4.14 3.23-.78 8.84-2.63 13.46-2.24.15 4-.52 7.64-.62 12.18-.92 4.23-1 8.77-1.94 13-.1 4.54-3 6.74-5.57 10.36m-64.36-49.84c1.54 1.11 5.87 2.38 8.31 3.82-.69 11.91-3.84 26.42-3.79 35.11-5.11.23-8.38-3.05-14.11-2.81l-2.57-.8c-1.73-.61-.66-1-2.05-.83-3.13-.44-5.2-1.83-8.33-2.27L348.3 179c-6.11-2.82-12.22-5.64-17.61-10.21-2.07-1.4-5.05-3.79-5.82-6.73-1.69-3.93.58-7.81 2.26-11.89 2.16-5.24 3.17-10.89 5.91-15.93 1.55-2.13 3.47-6.79 5.34-8.13 2.46-1.14 5.68.67 8 1.48a87.21 87.21 0 0 1 11.89 4.86z"/></g><path d="M443.8 118.19c-5.2 1.42-28.45-5.26-33.94-5.61-6.4.06-4.74-2.65-8.25-8-1-1.53-5.6-10-3.86-11.42 1.57-1.23 4.62 1.35 5.74 2.13 9.78 6.78 21 13.62 32.92 17a59.2 59.2 0 0 0 8.36 1.46c1.61.18 5.46-1.3 5.9 1.09.39 2.09-5.28 2.87-6.87 3.35z"/></g></g></g></svg>