<svg xmlns="http://www.w3.org/2000/svg" xmlns:xlink="http://www.w3.org/1999/xlink" viewBox="0 0 1280 400"><defs><style>.cls-1{fill:none}.cls-2{clip-path:url(#clip-path)}.cls-3{fill:url(#radial-gradient)}.cls-4{fill:url(#linear-gradient)}.cls-5{fill:url(#New_Gradient_Swatch_1)}.cls-6{fill:#1e529b}.cls-7{fill:url(#New_Gradient_Swatch_1_copy)}.cls-8{fill:url(#New_Gradient_Swatch)}</style><clipPath id="clip-path"><path d="M-157 0h1594v498H-157z" class="cls-1"/></clipPath><radialGradient id="radial-gradient" cx="641.05" cy="1106.37" r="1106.37" gradientTransform="matrix(1.24 0 0 1.25 -157 0)" gradientUnits="userSpaceOnUse"><stop offset=".83" stop-color="#3d80c5"/><stop offset="1" stop-color="#00569e" stop-opacity="0"/></radialGradient><linearGradient id="linear-gradient" x1="640" x2="640" y1="491.37" y2="184.72" gradientUnits="userSpaceOnUse"><stop offset="0" stop-color="#00569e"/><stop offset="1" stop-color="#287fc5"/></linearGradient><linearGradient id="New_Gradient_Swatch_1" x1="833.87" x2="860.16" y1="656.29" y2="82.8" data-name="New Gradient Swatch 1" gradientUnits="userSpaceOnUse"><stop offset=".01" stop-color="#1e3d7b"/><stop offset=".49" stop-color="#01569e"/><stop offset="1" stop-color="#287fc5"/></linearGradient><linearGradient id="New_Gradient_Swatch_1_copy" x1="190.66" x2="216.95" y1="626.81" y2="53.29" data-name="New Gradient Swatch 1 copy" xlink:href="#New_Gradient_Swatch_1"/><linearGradient id="New_Gradient_Swatch" x1="81.89" x2="174.74" y1="352.75" y2="352.75" data-name="New Gradient Swatch" gradientUnits="userSpaceOnUse"><stop offset=".01" stop-color="#1e3d7b" stop-opacity=".5"/><stop offset="1" stop-color="#01569e"/></linearGradient></defs><g id="planet"><g id="planet-2" data-name="planet"><ellipse cx="640" cy="1377.42" class="cls-2 cls-3" rx="1375.52" ry="1377.42"/><path d="M1437 498c-219-173.87-495.86-277.72-797-277.72S62 324.13-157 498z" class="cls-4"/><path d="M966.54 262.25c-120.41-32.36-244.68-39.39-244.68-39.39l-4.86 8.62s-10.14 3.59-16.11 3-9.55 5.38-9.55 5.38l9.55 4.78-30.43.59 7.16 5.38-21.48-1.19-10.74-3.59-26.84-1.19-6.56-4.79 49.29 1.15 16.37-2.39-4.77-7.17h-56.68l-81.74 4.18-31.62 3-10.14 6.57h-17.3l-34.61 11.39 10.14 3.58 8.95-4.18 19.1-3.59-7.16 5.45-9.55 3.52-5.37 5.37-17.3-1.79-48.92 34.65-7.76.6-44.15 23.9-6.56 16.73v14.33s23.86 5.38 25.65 4 17.3-6.38 17.3-6.38l25.06-17.92 8.35-.6 11.34 17.93 19.69 10.75 6 14.94 20.28-5.38v-7.17l19.78-3.58 7.07-10.16.59-23.3 10.74-3L516 312.74l-8-5.38h-17.68l-4.68-5.75s3.65-11.86 6.38-16.42 26.4-9.11 26.4-9.11v-10.95l11.84-7.29 28.79 1.92-31.28 22.88 12.41 7 4 9.44 31.28 1 30.29-10 15.88-2 9.44-4 6 3 10.42-1.49 5 3-7.95 5-13.9 6-25.41 1.41-22.34 7-9.89 48.72-5.47 7-8.44 1.49-3.47 9.95-17.38.49-6-5.47L502 382.57l-27.36 13.93-13.9-2-7.45-6.5-15.89 8-24.32 8-13.91-5.47-6.95-8.94 5.46-8.46 6.46-3 4.47-5.47-7.45-3.48 4-10h-6.45l-13.41 7-12.91 3-5.46 11.93 4.44 10.89 3.47 17.4-6.45 7.46-15.89 2-12.91 6.46-28.3 8-8.44 21.88-21.35 13.39L262.13 482l-14.4 4-2.48 12h583.41l1.49-10.51-5.95-5.49 8.93-7-3-11.94 4.47-6 12.91-.5L860 467.1l13.4-7.46 15.89 1-13.41 14.91s19.86 0 22.35.5 7.89 12.95 7.89 12.95l13.9 1.49 4-10.94 8.44 2 4.47-9.95 9.93-.49.49-7.46-6-3.48-10.42 7-24.33-12.43 19.86-12.93 15.39-7.46 16.39 10 7 12.43-5.46 3-3.48 4.48 8.44 3.48 8.94 6 9.93-1.49 6 5.47 17.38-1 35.25 11.93L1068 498h130.09l-39.23-21.45-11.42-9.95-6.45-8.45-5.47 1-9.93-6-2-13.92-7.95 3-3.47-7.46 5-6-4.47-9.44 6.46-3.48 3 7 7.94 8.95v-14.92l-4.47-5 10.93-2.49 7.94 4.48-7.94 5 3 7 13.9 2 4.47 15.91 13.9 2 39.72 22.37 14.4 2.49 9.44 14.42 8.44-1.49L1258 498h179c-155.88-131.18-350.06-203.39-470.46-235.75zm-292.79 22.87l-4.47 3.48-12.91-7.71-12.91-2.23 5-5.47h10.42l11.92 3h10.92l2.49 6zM713 273.19l-14.39-6h-8.94l-5.46-2.48 8.44-3.48 20.35 7.48zm48.66 20.38v-5l-5.46-5h14.15l6.71 5 7.44 5z" class="cls-5"/><path d="M526.78 328.88l-11.92 7.95 2.98 6.47 8.94-4.48v-9.94zm-91.86 40.27l-11.91 7.46-8.45 2.98v5.47h10.18v5.47l-10.18 1.99 5.6 2.69 14.76-4.18-3.47-7.21 3.47-14.67zm65.05-22.38l-3.98 12.37 6.96 1.29-2.98-13.66zm-27.31 27.85v4.47l7.94-2.23-1.98-7.71-5.96 5.47z" class="cls-6"/><path d="M137.01 498l5.46-8.53 17.38-7.95v-17.9l11.42 2.98 14.89-9.94v-12.43l-3.47-5.47-10.93 5.47-10.17.99 11.66-10.44-2.97-4.97-6.46 5.97-6.95.99 14.89-17.9h-13.4l23.83-18.89 14.9-12.43 16.88-5.37-15.89 18.79 26.32-9.45v7.46l-16.39 11.44-7.45 6.96 9.93-.5 7.95 2.49.99 15.41 11.42 1 6.95 12.43-5.46 6.46 5.46 2.98 7.45-5.47 12.91 1.5-3.47 13.92-9.44 6.96v6.46L217.44 498h-80.43z" class="cls-7"/><path d="M81.89 369.15l13.91-8.72v-6.83l10.92-6.83h14.9l19.36-3.47 19.36-11.91h9.44l4.97 7.93-19.37 7.45-20.36 3.5-6.7 6.95-7.7 7.46-19.86 9.44-18.87-4.97z" class="cls-8"/><path d="M258.16 352.75l-10.92 6.39v7.03l5.46-3.48 5.46-9.94z" class="cls-6"/></g></g></svg>